/* XPM */
static char *_a3cff181c0c4878bc749142aa0b7f56xeFBNevKNw5XEPir[] = {
/* columns rows colors chars-per-pixel */
"50 50 220 2 ",
"   c #090500",
".  c #120B00",
"X  c #231E08",
"o  c #1E231C",
"O  c #393400",
"+  c #2D2711",
"@  c #39362E",
"#  c #302B25",
"$  c #423200",
"%  c #4E3900",
"&  c #443B10",
"*  c #453C2D",
"=  c #4A4202",
"-  c #574A07",
";  c #5D510C",
":  c #494714",
">  c #524817",
",  c #595319",
"<  c #624B00",
"1  c #6E5B00",
"2  c #655516",
"3  c #726300",
"4  c #7D6F16",
"5  c #4B4327",
"6  c #5E5A27",
"7  c #464539",
"8  c #595230",
"9  c #61532C",
"0  c #6B5B35",
"q  c #736439",
"w  c #706A3A",
"e  c #6F6A2D",
"r  c #474745",
"t  c #504742",
"y  c #585747",
"u  c #575850",
"i  c #635942",
"p  c #79704D",
"a  c #7D7747",
"s  c #626355",
"d  c #736A54",
"f  c #7C755D",
"g  c #6E6E6C",
"h  c #70706E",
"j  c #6D7075",
"k  c #6E6F72",
"l  c #896E01",
"z  c #867802",
"x  c #937800",
"c  c #897817",
"v  c #887B2F",
"b  c #867743",
"n  c #807654",
"m  c #B49B1C",
"M  c #AB9317",
"N  c #968627",
"B  c #979234",
"V  c #A79121",
"C  c #B49F28",
"Z  c #A3953C",
"A  c #BFA222",
"S  c #BAA838",
"D  c #C8A513",
"F  c #CBB131",
"G  c #DFC33E",
"H  c #EFD63C",
"J  c #FFDC36",
"K  c #FDD73E",
"L  c #F6DA3B",
"P  c #FEDC3C",
"I  c #F2D637",
"U  c #EFCC31",
"Y  c #FFE23D",
"T  c #8D8053",
"R  c #9B9559",
"E  c #91884D",
"W  c #A69A47",
"Q  c #A2A147",
"!  c #BAAA45",
"~  c #ABA158",
"^  c #BAAC51",
"/  c #8B8361",
"(  c #858667",
")  c #9E8F66",
"_  c #9D9769",
"`  c #988C77",
"'  c #9B9777",
"]  c #A29B6A",
"[  c #A49763",
"{  c #A69C77",
"}  c #A9A66A",
"|  c #B7AC67",
" . c #AEA97F",
".. c #A8A37B",
"X. c #B3AA7B",
"o. c #BCB473",
"O. c #C2A94F",
"+. c #D0AE40",
"@. c #C9B746",
"#. c #C3B553",
"$. c #C6B965",
"%. c #C1B970",
"&. c #C7C14F",
"*. c #DAC957",
"=. c #DED158",
"-. c #E4C945",
";. c #E4CD49",
":. c #EDD64D",
">. c #EFDA43",
",. c #F5DC43",
"<. c #FDDC43",
"1. c #F5DC4B",
"2. c #FADC4B",
"3. c #ECCF52",
"4. c #E4CF5A",
"5. c #EDDD52",
"6. c #EED45A",
"7. c #EEDA5C",
"8. c #F5DC52",
"9. c #F4DE5D",
"0. c #F9DD5A",
"q. c #FBDD53",
"w. c #FEE243",
"e. c #FEE24A",
"r. c #F6E54F",
"t. c #F5E059",
"y. c #FCE25A",
"u. c #FAE156",
"i. c #CDCA6D",
"p. c #D3C563",
"a. c #CFCB74",
"s. c #D8CF74",
"d. c #DFD875",
"f. c #DBDA66",
"g. c #ECDB67",
"h. c #E2D368",
"j. c #EBD96A",
"k. c #F3D763",
"l. c #F3DB6A",
"z. c #ECDE73",
"x. c #E9DB78",
"c. c #E2E36E",
"v. c #F7E168",
"b. c #EBE97A",
"n. c #878885",
"m. c #8A8989",
"M. c #958C91",
"N. c #959391",
"B. c #AAA783",
"V. c #A1A38B",
"C. c #B5AD85",
"Z. c #A6A396",
"A. c #B6AD97",
"S. c #BBB39B",
"D. c #B6B697",
"F. c #B6B484",
"G. c #A7A7AA",
"H. c #B8B7AB",
"J. c #B8B8B6",
"K. c #AAA7B2",
"L. c #C2BD96",
"P. c #C5B98F",
"I. c #C9C298",
"U. c #D6CC96",
"Y. c #D9D89C",
"T. c #D4C880",
"R. c #E9DC88",
"E. c #E4D68A",
"W. c #E4D890",
"Q. c #E6E18A",
"!. c #E0E392",
"~. c #D5C9AC",
"^. c #CAC6B8",
"/. c #D9D5B6",
"(. c #CFC9AB",
"). c #E4DBBF",
"_. c #E8DCB6",
"`. c #E0D5A8",
"'. c #F2E4B7",
"]. c #C4C4C3",
"[. c #CCCCCA",
"{. c #DBD9CA",
"}. c #D8D2C8",
"|. c #CDD1D4",
" X c #D3D3D1",
".X c #D7D7DB",
"XX c #E0DCC3",
"oX c #DFE0D8",
"OX c #EBE5C3",
"+X c #EAE6C9",
"@X c #FBEFC9",
"#X c #FDF8C7",
"$X c #ECECDD",
"%X c #E0E2D5",
"&X c #F1EBD5",
"*X c #FFFADF",
"=X c #F9F4D9",
"-X c #DEDEE4",
";X c #E4D7E1",
":X c #DEE3E6",
">X c #E9EAE7",
",X c #E6E6E6",
"<X c #F4E9E2",
"1X c #EFF1EC",
"2X c #FBF6E4",
"3X c #FFFBE2",
"4X c #F5F4EC",
"5X c #FFF6EE",
"6X c #F6FAEC",
"7X c #FFFDED",
"8X c #F4F7E4",
"9X c #EFF3F4",
"0X c #F5F4F2",
"qX c #FDF5F5",
"wX c #F7FAF5",
"eX c #FEFEF5",
"rX c #F5F6FC",
"tX c #FDF6FB",
"yX c #F6FCFC",
"uX c #FEFEFE",
/* pixels */
"uXuXuXuXuXuXuXuXuXuXuXuXuXuXuXuXuXuXuXuXuXuXuXuXuXuXuXeXuXuX7X7XuXuXuXwXuXuXm.].uXwXuXuXuXuXuXuXuXuX",
"uXuXuXuXuXuXuXuXuXuXuXuXuXuXuXuXuXuXuXuXuXuXuX6XuXuXuXuXuXwXeXeXuXuXwXuXuXuX Xg uXuXuXuXuXuXuXuXuXuX",
"uXuXuXuXuXuXuXuXuXuXuXuXuXuXuXuXuXuXuXuXuXuX4X%XZ.n. XuXuXuXuXuXuXuXuXuXuXuXuXh >XuXuXuXuXuXuXuXuXuX",
"uXuXuXuXuXuXuXuXuXuXuXuXuXuXuXuXuXuXuXuXuXuXuXwXuX>XN.g -XuXuXuXuXuXuXuXuXuXuXJ.].uXuXuXuXuXuXuXuXuX",
"uXuXuXuXuXuXuXuXuXuXuXuXuXuXuXuXuXuXuXuXuXuXuXuXuXuXuX.Xr [.uXuXuXuXuXuXuXwXuX[.J.wXuXuXwXuXuXuXuXuX",
"uXuXuXuXuXuXuXuXuXuXuXuXuXuXuXuXuXeXuXuXuXuXwXwXuXuXuXuXoX7 ,XuXuXuXuXuXuXuXuX.X XuXuXuXuXuXuXuXuXuX",
"uXuXuXuXuXuXuXuXuXuXuXuXuXuXuXuXuXuXuXuXuXuXuXuXuXuXyXwXeX Xr uXuXuXuXwXuXuXwXuX0XuXuXuXuXuXuXuXuXuX",
"uXuXuXuXuXuXuXuXuXuXuXuXuXuXuXuXuXuXuXuXuXuXuXyXyXuXeXuXuXuXm.J.uXuXwXuXuXuXuXuXuXuXuXuXuXuXuXuXuXuX",
"uXuXuXuXuXuXuXuXuXuXuXuXuXuXuXuXuXwXuXuXuXuXwXuXuXuXuXeXuXeX1Xj uXuXuXuXuXuXuXuXuXuXuXuXuXuXuXuXuXuX",
"uXuXuXuXuXuXuXuXuXuXuXuXuXuXuXuXuXuXuXuXuXuXuX0XuXuXwXwXuXuXuXn.uXuXuXuXuXuXuXuXuXuXuXuXuXuXuXuXuXuX",
"uXuXuXuXuXuXuXuXuXuXuXuXuXuXuXuXeXeXuXyXuXuXuXuXqXuXuXuXuXuXuX].wXuXuXuXuXuXuXwXuXuXuXuXuXuXuXuXuXuX",
"uXuXuXuXuXuXuXuXuXuXuXuXuXuXuXuXeXwXuXuXuXuXtX5X3XOX}.uXuXuXuXuXuXuXuXuXuXuXuXuXuXuXuXuXuXuXuXuXuXuX",
"uXuXuXuXuXuXuXuXuXuXuXuXuXuXuXuXyXyXuXeXeXeXeX{ Q.Q.` tXuXeXeXuXeXuXuXuXuXwXuXuXuXuXuXuXuXuXuXuXuXuX",
"uXuXuXuXuXuXuXuXuXuXuXuXuXuXuXuXyXyXuXeXeX7X@XE &.x.q 7X*Xf {.eXeXeXuXuXuXuXuXuXuXuXuXuXuXuXuXuXuXuX",
"uXuXuXuXuXuXuXuXuXuXuXuXuXuXuXuXuXyXuXuXtX).R.=.z x.$ '.R e OX2X4XeXuXuXuXuXuXuXuXuXuXuXuXuXuXuXuXuX",
"uXuXuXuXuXuXuXuXuXuXuXuXuXuXuXuXuXuXuXuX;X` $.=.3 l.c N #.Q.o.]  ./.eXuXuXuXuXuXuXuXuXuXuXuXuXuXuXuX",
"yXyXyXuXuXuXuXuXuXwXuXwXuXuXuXuXuXeXuXuXuX5X; ! t.1.1.0.k.l < p.x.E.3XuXuXuXuXeXuXuXuXuXuXuXuXuXuXuX",
"uXuXuXuXuXuXuXuXuXuXwXuXuXuXeXeX7X7X7XeXqX*X$ 4.1.e.P <.q.3.m M F x.#XeXuXyXuXeXuXuXuXuXuXuXuXuXuXuX",
"uXuXuXeXuXuXuXuXuXeXuXuXuXuX2XS.C.X.P.U.X.; S t.e.<.<.<.e.e.1.-.m N b =XuXuXeXuXuXuXuXuXuXuXuXuXuXuX",
"uXeXeXeXuXuXuXuXuXuXuXeX+Xp > v $.$.W Z ^ *.z 1.w.P <.K Y I e.y.0.l.T...eXyXuXuXuXuXuXuXuXuXuXuXuXuX",
"uXuXeXeXuXuXuXyXyXuXuX=X- #.j.v.0.8.0.:.t.;.% 0.L Y K <.P P <.2.G F R.Y.eXuXuXwXuXuXuXuXuXuXuXuXuXuX",
"uXuXeXuXuXuXyXeXuXuXqX{ ! t.8.2.<.P P w.,.1.F 2.P J P w.J P <.G y.C 4 #X7XuXuXuXuXuXuXuXuXuXuXuXuXuX",
"uXuXuXuXuXyXyXeXyXuXeX9 j.r.,.2.<.e.<.e.H w.e.P P J Y J J Y P D F g.v ] 7XyXuXuXuXuXuXuXuXuXuXuXuXuX",
"uXuXuXuXuXuXuXuXuXuXuXf $.g.*.S S @.l.7.y.1.L w.P P J P J Y <.2.x S W.@XeXuXuXuXuXuXuXuXuXuXuXuXuXuX",
"uXuXeXeXuXuXuXuXuXuXuX4X' { P._.).D.R e c @.8.e.w.P <.<.e.,.e.8.9.1 [ 7XeXuXuXuXuXuXuXeXeXuXuXuXuXuX",
"uXuXuXuXeXuXuXuXuXuXuXuXwXuXeXuXuXyXeX/., W c 7.6.3.k.k.4.C S h.z.R.n 4XuXuXwXuXuXuXuXeXyXuXuXuXuXuX",
"uXuXuXuXuXuXuXuXuXuXeXyXuXuXuXuXuXuX0XeX&X> a.W $ q b E | = `.a | U.7XuXuXuXuXuXuXuXuXyXyXuXuXuXuXuX",
"yXyXuXuXuXuXuXuXuXuXuXuXuXyXyXuXuXuXuXeX7X/ } , &XuXqX{.( (.N.7Xw `.uXuXuXwXuXuXuXuXuXyXyXuXuXuXuXuX",
"yXyXeXyXuXuXuXuXuXuXuXuXeXeXuXuXtXuXeX7XOX0 a B.7XeXuXwXuXuX1XeX(.XXuXyXuXuXuXuXuXuXuXuXyXuXuXuXuXuX",
"eXwXeXuXuXuXuXuXuXuXuXuX4XeXuXuXuXuX7X_.; %.O T C. .L.&XwXuXuXeXeXeXuXyXyXuXeXeXuXuXuXuXyXuXuXuXuXuX",
"uXuXeXeXuXuXuXuXuXwXwXuXuXuXuXeXuXuX/., p.=.O.< j.g.j.B ~.uX4XuXuXuXeXwXyXuXuXuXuXuXuXuXyXuXuXuXuXuX",
"uXuXuXuXuXuXuXuXuXuXuXyXuXuXuXuXuX8X: s.5.u.6.+.A :.5.z.) <XeXuXuXyXyXeXyXeXuXuXuXuXuXuXuXuXuXuXuXuX",
"uXuXuXuXuXuXuXuXuXuXuXuXuXuXuXuXeXp ^ v.,.L -.l V *.S N q i Z.eXuXuXuXuXuXuXuXuXuXuXuXuXeXeXuXuXuXuX",
"uXuXuXuXuXuXuXuXuXuXuXuXuXuXuXuXuX0 v.H P w.1.*.% W ~ ~ ' }.=X7X5XuXuXqXuXwXuXuXuXuXuXuXeXuXuXuXuXuX",
"uXuXuXuXuXuXuXuXuXuXuXuXuXuXuXuXuX0 7.w.w.e.>.g.2 ~.A.S.<XeXeX7X7X3X7XeXtXuXuXtXuXuXeXeXuXuXuXuXuXuX",
"uXuXuXuXuXuXuXuXuXuXuXuXuXuXuXuXuX/ h.5.:.0.v.p.> 5XqXuXuX{.D.' _ } _ I.eXuXuXuXuXeXuXuXuXuXuXuXuXuX",
"uXuXuXuXuXuXuXuXuXuXuXuXuXuXuXuXyX$XT $.d.^ 2 . d H.A.` B.F.Y.!.d.b.c.Q ` uXuXtXeXuXuXuXuXuXuXuXuXuX",
"uXuXuXuXuXuXuXuXuXuXuXuXuXuXuXuXuX6X7XC.= - 5 ` y s y 5 . : 6 O O B f.i.n eXuXuXeXuXuXuXuXuXuXuXuXuX",
"uXuXuXuXuXuXuXuXuXuXuXuXuXuXuXwXeXeXeX2X6 & f 5XeX^.1X>X>X2XeX2X~.0 , I.* qXuXtXeXeXuXuXuXuXuXuXuXuX",
"uXuXuXuXuXuXuXuXuXuXuXuXuXuXwX1Xu y @ # X i X 7 s o :XyXuXuXtXuXtXeX^.d t M.uXuXeXeXuXuXuXuXuXuXuXuX",
"uXuXuXuXuXuXuXuXuXuXuXuXuXuXwXwXH.7     . # 8 ( y H.yXyXuXeXtXuXuXuXqX7XeXuXuXuXuXuXuXuXuXuXuXuXuXuX",
"uXuXuXuXuXuXuXuXuXuXuXuXuXuXuXuXeX$X].h # @ f V.6XwXuXuXeXeXuXuXuXwXuXuXuXuXuXuXuXuXuXuXuXuXuXeXuXuX",
"uXuXuXuXuXuXuXuXuXuXuXuXuXuXuXuX7X6XyXyXyXuXuXuXuXuXuXuXqXeXeXqXuXuXeXwXuXuXrXuXuXuXuXuXuXuXuXuXuXuX",
"uXuXuXuXuXuXuXuXuXuXuXuXuXuXuXuX7XeXyXyXyXuXuXuXuXuXuXuXeXuXqXuXwXwXyX:XrXuXuXyXuXuXuXuXuXuXuXuXuXuX",
"uXuXuXuXuXuXuXuXuXuXuXuXuXuXuXuXeXuXuXuXuXeXeXeXeXuXyXyXyXuXuXuXuXuX9X|.uXuXuXuXuXuXuXuXuXuXuXuXuXuX",
"uXuXuXuXuXuXuXuXuXuXuXuXuXuXuXuXuXeXuXuXuXeX5XeXeXuXyXyXyXyXuXuXuXyXG.eXuXuXuXuXuXuXuXuXuXuXuXuXuXuX",
"uXuXuXuXuXuXuXuXuXuXuXuXuXuXuXuXuXuXuXyXyXeXuXuXuXuXuXyXyXyXtXuX.XG.4XeXuXwXuXuXuXuXuXuXuXuXuXuXuXuX",
"uXuXuXuXuXuXuXuXuXuXuXuXuXuXuXuXuXuXyXyXyXuXuXeXuXuX-Xj n.J.m.m.K.tXeXeXwXuXuXuXuXuXuXuXuXuXuXuXuXuX",
"uXuXuXuXuXuXuXuXuXuXuXuXuXuXuXuXuXuXuXuXuXuXuXuXuXuXuXrX].].,XuXuXuXuXuXuXuXuXuXuXuXuXuXuXuXuXuXuXuX",
"uXuXuXuXuXuXuXuXuXuXuXuXuXuXuXuXuXuXuXuXuXuXuXuXuXwXwXuXwXuXuXuXuXuXuXuXuXuXuXuXuXuXuXuXuXuXuXuXuXuX"
};
