/* XPM */
static char *_1720a214158420f95bb8c7c73ccdfb6Fh6M5R1BAJtC8hmV[] = {
/* columns rows colors chars-per-pixel */
"50 50 155 2 ",
"   c #121718",
".  c #171B1C",
"X  c #381F20",
"o  c #262627",
"O  c gray17",
"+  c #3C2324",
"@  c #323131",
"#  c #441D1E",
"$  c #5A191A",
"%  c #7A0707",
"&  c #7D0708",
"*  c #760909",
"=  c #7A0809",
"-  c #661517",
";  c #6F1314",
":  c #761012",
">  c #442324",
",  c #4D2829",
"<  c #732F30",
"1  c #535353",
"2  c #5D5D5D",
"3  c #7C5C5C",
"4  c #686A6A",
"5  c #6E7070",
"6  c #810606",
"7  c #8C0405",
"8  c #820709",
"9  c #8C0709",
"0  c #89090B",
"q  c #930304",
"w  c #9C0305",
"e  c #93070A",
"r  c #9A0709",
"t  c #92090B",
"y  c #871214",
"u  c #8D1416",
"i  c #831719",
"p  c #861A1C",
"a  c #931113",
"s  c #9D1E1F",
"d  c #A50406",
"f  c #AB0306",
"g  c #A40609",
"h  c #AC0508",
"j  c #A1080A",
"k  c #B30305",
"l  c #BC0205",
"z  c #B20508",
"x  c #B0080B",
"c  c #BA0B0E",
"v  c #B00E11",
"b  c #BE0E11",
"n  c #AA1517",
"m  c #A7191C",
"M  c #B81417",
"N  c #8E2527",
"B  c #9A2324",
"V  c #A3292B",
"C  c #B62023",
"Z  c #A52F30",
"A  c #B73134",
"S  c #BC3336",
"D  c #BC3638",
"F  c #B23A3C",
"G  c #C40104",
"H  c #CD0004",
"J  c #D20004",
"K  c #D30609",
"L  c #D50A0D",
"P  c #D40F12",
"I  c #CA1518",
"U  c #D71A1D",
"Y  c #CA1F22",
"T  c #CC2325",
"R  c #CD282B",
"E  c #D52124",
"W  c #CE3437",
"Q  c #D53134",
"!  c #D83A3D",
"~  c #C03E40",
"^  c #CD3F42",
"/  c #D03F41",
"(  c #D93D40",
")  c #934243",
"_  c #9B4142",
"`  c #BA4648",
"'  c #BC4A4C",
"]  c #B74F51",
"[  c #B25051",
"{  c #B25E5F",
"}  c #A17677",
"|  c #BA7B7C",
" . c #CB4547",
".. c #C14749",
"X. c #C74749",
"o. c #CB4749",
"O. c #CE4B4D",
"+. c #D24A4D",
"@. c #D24E51",
"#. c #CC5052",
"$. c #CB5859",
"%. c #D75557",
"&. c #DC5F61",
"*. c #C5797A",
"=. c #DF7476",
"-. c #D97F80",
";. c #828383",
":. c #969595",
">. c #979898",
",. c #A88B8C",
"<. c #BC8A8B",
"1. c #AC9B9B",
"2. c #ACADAD",
"3. c #B2A5A5",
"4. c #BFA8A8",
"5. c #BBBABA",
"6. c #C78687",
"7. c #C28E8F",
"8. c #DC8384",
"9. c #DF8C8E",
"0. c #C49192",
"q. c #CD9091",
"w. c #C69E9F",
"e. c #DF989A",
"r. c #E5898B",
"t. c #E29A9B",
"y. c #C5A7A7",
"u. c #CAA5A6",
"i. c #C0AEAE",
"p. c #E7A4A5",
"a. c #EAB2B2",
"s. c #E4B8B8",
"d. c #C3C2C2",
"f. c #CCCCCC",
"g. c #D4D4D4",
"h. c #DCD7D7",
"j. c #DCDCDC",
"k. c #E3C6C6",
"l. c #ECC2C3",
"z. c #E2D6D6",
"x. c #EBD7D7",
"c. c #E4DEDE",
"v. c #EBDCDC",
"b. c #F2D3D4",
"n. c #E4E3E3",
"m. c #EBE4E4",
"M. c #E7E8E8",
"N. c gray92",
"B. c #ECECEC",
"V. c #EFEFEF",
"C. c #F4E6E6",
"Z. c #F1EDED",
"A. c #F3F3F3",
"S. c #F4F4F4",
"D. c #FAFAFA",
/* pixels */
"D.V.A.D.N.D.A.V.D.N.S.S.V.D.V.A.S.N.D.A.A.D.N.S.S.V.D.V.A.S.N.D.A.A.D.N.S.A.V.D.V.S.S.N.D.V.A.D.N.D.",
"V.S.A.A.S.A.A.S.V.S.A.A.S.V.S.A.A.S.V.A.S.V.S.A.A.S.V.S.A.A.S.V.S.A.V.S.A.A.S.V.S.A.A.S.V.S.A.A.S.A.",
"A.A.A.A.A.A.A.A.A.A.A.A.A.A.A.A.A.A.A.A.A.A.A.A.A.A.A.A.A.A.A.A.A.A.A.A.A.A.A.A.A.A.A.A.A.A.A.A.A.A.",
"S.A.A.S.V.S.A.A.S.V.S.S.V.S.A.A.S.V.S.A.A.S.V.S.A.A.S.A.A.S.V.S.A.A.S.V.S.A.A.S.V.A.S.V.S.A.A.S.V.S.",
"N.S.S.V.D.V.A.S.N.D.A.A.D.N.S.A.V.D.V.S.S.N.D.V.A.D.N.D.A.V.D.N.S.S.V.D.V.A.S.N.D.A.A.D.N.S.A.V.D.V.",
"D.V.A.D.N.D.A.V.D.N.S.S.V.D.V.A.S.N.D.A.A.D.N.S.S.V.D.V.A.S.N.D.A.A.D.N.S.A.V.D.V.S.S.N.D.V.A.D.N.D.",
"V.S.A.A.S.A.A.S.V.S.A.A.S.V.S.A.A.S.V.A.S.V.S.A.A.S.V.S.A.A.S.V.S.A.V.S.A.A.S.V.S.A.A.S.V.S.A.A.S.A.",
"A.A.A.A.A.A.A.A.A.A.A.A.A.A.A.A.A.A.A.A.A.A.A.A.9.-.A.A.A.A.A.A.A.A.A.A.A.A.A.A.A.A.A.A.A.A.A.A.A.A.",
"S.A.A.S.V.S.A.A.S.V.S.S.V.S.A.A.S.V.S.A.A.S.V.a.K H p.A.A.S.V.S.A.A.S.V.S.A.A.S.V.A.S.V.S.A.A.S.V.S.",
"N.S.S.V.D.V.A.S.N.D.A.A.D.N.S.A.V.D.V.S.S.N.b.P J H L l.A.V.D.N.S.S.V.D.V.A.S.N.D.A.A.D.N.S.A.V.D.V.",
"D.V.A.D.N.D.A.V.D.N.S.S.V.D.V.A.S.N.D.A.A.C.E J J H J U x.S.N.p.e.t.l.N.S.A.V.D.V.S.S.N.D.V.A.D.N.D.",
"V.S.A.A.S.A.A.S.V.S.A.A.S.V.S.A.A.S.V.A.Z.( J J H G J J Q m.m.G H H +.S.A.A.S.V.S.A.A.S.V.S.A.A.S.A.",
"A.A.A.A.A.A.A.A.A.A.A.A.A.A.A.A.A.A.A.A.&.J J H k f H J J +.z.G H H O.A.A.A.A.A.A.A.A.A.A.A.A.A.A.A.",
"S.A.A.S.V.S.A.A.S.V.S.S.V.S.A.A.S.V.S.8.J J H l 6 6 l H J J $.l G H +.V.S.A.A.S.V.A.S.V.S.A.A.S.V.S.",
"N.S.S.V.D.V.A.S.N.D.A.A.D.N.S.A.V.D.y.x G H G 7 q q 7 l G G l h G G  .D.V.A.S.N.D.A.A.D.N.S.A.V.D.V.",
"D.V.A.D.N.D.A.V.D.N.S.S.V.D.V.A.S.k.P H f 0 * q d d q % d k z l l G O.N.S.A.V.D.V.S.S.N.D.V.A.D.N.D.",
"V.S.A.A.S.A.A.S.V.S.A.A.S.V.S.A.v.E J J H w q d k k d q q H H J H l X.S.A.A.S.V.S.A.A.S.V.S.A.A.S.A.",
"A.A.A.A.A.A.A.A.A.A.A.A.A.A.A.Z.! J J H d q d l l l l d q d H H J H X.A.A.A.A.A.A.A.A.A.A.A.A.A.A.A.",
"S.A.A.S.V.S.A.A.S.V.S.S.V.S.A.&.J J H k 7 d l l G G l l d 7 f H H J Q N.S.A.A.S.V.A.S.V.S.A.A.S.V.S.",
"N.S.S.V.D.V.A.S.N.D.A.A.D.N.r.J J H l 7 d l k k k k k k l d 7 k H J J =.V.A.S.N.D.A.A.D.N.S.A.V.D.V.",
"D.V.A.D.N.D.A.V.D.N.S.S.V.a.J J H G % * 0 9 d : - - ; d e 9 8 & l H J J t.A.V.D.V.S.S.N.D.V.A.D.N.D.",
"V.S.A.A.S.A.A.S.V.S.A.A.k.b l G G q w k l G G > O O + G G l k w 7 G H J K s.S.V.S.A.A.S.V.S.A.A.S.A.",
"A.A.A.A.A.A.A.A.A.A.A.m.T G l d = w k l G G G > O O + G G G l k w & e j j m v.A.A.A.A.A.A.A.A.A.A.A.",
"S.A.A.S.V.S.A.A.S.V.S.N.Y H H w q k l G G H G > O O + G H G G l k q w H H I c.S.V.A.S.V.S.A.A.S.V.S.",
"N.S.S.V.D.V.A.S.N.D.A.V.q.H d q f l G G H H H # o o X H H H G G l f q d H *.S.N.D.A.A.D.N.S.A.V.D.V.",
"D.V.A.D.N.D.A.V.D.N.S.S.j.Z * d l G G H H H H ; $ $ - H H H H G G l f % B c.V.D.V.S.S.N.D.V.A.D.N.D.",
"V.S.A.A.S.A.A.S.V.S.A.A.S.3.B l G G H H H H H J J J J H H H H H G G l s 1.A.S.V.S.A.A.S.V.S.A.A.S.A.",
"A.A.A.A.A.A.A.A.A.A.A.A.A.V...G G G H H H G l z z h g t e t e t r 0 e _ N.A.A.A.A.A.A.A.A.A.A.A.A.A.",
"S.A.A.S.V.S.A.A.S.V.S.S.V.S.[ e e t e e e j h k k k l H G H H H H G z ..A.A.A.S.V.A.S.V.S.A.A.S.V.S.",
"N.S.S.V.D.V.A.S.N.D.A.A.D.N.@.H H H H H H H H H H H H H H H H H H H H ^ V.A.S.N.D.A.A.D.N.S.A.V.D.V.",
"D.V.A.D.N.D.A.V.D.N.S.S.V.D.O.H H H H H H H H H H H H H H H H H H V { ~ S.A.V.D.V.S.S.N.D.V.A.D.N.D.",
"V.S.A.A.S.A.A.S.V.S.A.A.S.V.@.H H H H H H H l G l l l l H H b <.| h.D.4.V.A.S.V.S.A.A.S.V.S.A.A.S.A.",
"A.A.A.A.A.A.A.A.A.A.A.A.A.A.O.H H H H H H H a > > > > y H H 6.D.D.M.D.j.V.A.A.A.A.A.A.A.A.A.A.A.A.A.",
"S.A.A.S.V.S.A.A.S.V.S.S.V.S.O.H H H H H H H u @ @ @ @ i H F f.D.D.D.D.S.j.A.A.S.V.A.S.V.S.A.A.S.V.S.",
"N.S.S.V.D.V.A.S.N.D.A.A.D.N.#.H J H H H H G a @ @ @ @ i H l y.D.D.D.j.4 f.A.S.N.D.A.A.D.N.S.A.V.D.V.",
"D.V.A.D.N.D.A.V.D.N.S.S.V.D.' r r e t e e j u @ @ @ @ i h g B n.D.h.>.  d.A.V.D.V.S.S.N.D.V.A.D.N.D.",
"V.S.A.A.S.A.A.S.V.S.A.A.S.V.@.H H H H H H H u @ @ @ @ i H H H n ,.D.5 . f.A.S.V.S.A.A.S.V.S.A.A.S.A.",
"A.A.A.A.A.A.A.A.A.A.A.A.A.A.+.H H H H H H H u @ @ @ 2 p H H H H N 6.< 1 j.A.A.A.A.A.A.A.A.A.A.A.A.A.",
"S.A.A.S.V.S.A.A.S.V.S.S.V.S.o.H H H H H H H u @ @ @ 2 p H H H H ) %.H D A.A.A.S.V.A.S.V.S.A.A.S.V.S.",
"N.S.S.V.D.V.A.S.N.D.A.A.D.N.+.H H H H H H H u @ @ @ 1 p H H H G c.3.H W V.A.S.N.D.A.A.D.N.S.A.V.D.V.",
"D.V.A.D.N.D.A.V.D.N.S.S.V.D. .H H H H H H H u @ @ @ @ i H H H D D.f.c W S.A.V.D.V.S.S.N.D.V.A.D.N.D.",
"V.S.A.A.S.A.A.S.V.S.A.A.S.V.' z f g g h h h u @ @ @ @ i H H H A A.n.C W V.A.S.V.S.A.A.S.V.S.A.A.S.A.",
"A.A.A.A.A.A.A.A.A.A.A.A.A.A.` l G H J J H l u @ @ @ @ i j d j t i.:.3 ) A.A.A.A.A.A.A.A.A.A.A.A.A.A.",
"S.A.A.S.V.S.A.A.S.V.S.S.V.S.^ H H H H H H H u @ @ @ @ i H H H v } h.d S A.A.A.S.V.A.S.V.S.A.A.S.V.S.",
"N.S.S.V.D.V.A.S.N.D.A.A.D.N./ H H H H H H H a , , , , u H H M 2.g.D.] R N.A.S.N.D.A.A.D.N.S.A.V.D.V.",
"D.V.A.D.N.D.A.V.D.N.S.S.V.D.u.7.0.<.0.7.7.0.<.7.<.<.0.<.7.0.,.;.2.5.1.w.S.A.V.D.V.S.S.N.D.V.A.D.N.D.",
"V.S.A.A.S.A.A.S.V.S.A.A.S.V.A.N.N.V.N.V.V.M.V.N.N.V.M.V.N.N.V.n.n.N.M.A.A.A.S.V.S.A.A.S.V.S.A.A.S.A.",
"A.A.A.A.A.A.A.A.A.A.A.A.A.A.A.A.A.A.A.A.A.A.A.A.A.A.A.A.A.A.A.A.A.A.A.A.A.A.A.A.A.A.A.A.A.A.A.A.A.A.",
"S.A.A.S.V.S.A.A.S.V.S.S.V.S.A.A.S.V.S.A.A.S.V.S.A.A.S.A.A.S.V.S.A.A.S.V.S.A.A.S.V.A.S.V.S.A.A.S.V.S.",
"N.S.S.V.D.V.A.S.N.D.A.A.D.N.S.A.V.D.V.S.S.N.D.V.A.D.N.D.A.V.D.N.S.S.V.D.V.A.S.N.D.A.A.D.N.S.A.V.D.V."
};
