/* XPM */
static char *_6a3c9b815cd42cb9a855f4e2c14c0ffl9WPxsHf2m4EFdtx[] = {
/* columns rows colors chars-per-pixel */
"50 50 184 2 ",
"   c #010201",
".  c #080901",
"X  c #00000B",
"o  c #0B0B0B",
"O  c #0A0502",
"+  c #151100",
"@  c #14150C",
"#  c #0C0910",
"$  c #141414",
"%  c #1C1C1D",
"&  c #13121A",
"*  c #373713",
"=  c #1E1C27",
"-  c #231E25",
";  c #242423",
":  c #27272F",
">  c #2B2B2B",
",  c #302923",
"<  c #2E302F",
"1  c #343425",
"2  c #32332E",
"3  c #3F3E29",
"4  c #333333",
"5  c #393738",
"6  c #3B3B3B",
"7  c #3B3C34",
"8  c #424600",
"9  c #595A2E",
"0  c #4F523D",
"q  c #5D6033",
"w  c #7A7C29",
"e  c #63603D",
"r  c #3F3E43",
"t  c #454545",
"y  c #4F4D40",
"u  c #45444A",
"i  c #4B4B4B",
"p  c #51514F",
"a  c #535353",
"s  c #5B5C55",
"d  c #545358",
"f  c #5C5C5C",
"g  c #625E41",
"h  c #5D604F",
"j  c #676447",
"k  c #63645C",
"l  c #696A55",
"z  c #5F5D60",
"x  c #605F64",
"c  c #636364",
"v  c #64636A",
"b  c #6C6C6C",
"n  c #6C6B67",
"m  c #70706E",
"M  c #6C6C72",
"N  c #747474",
"B  c #757479",
"V  c #7B7B7C",
"C  c #7A7B73",
"Z  c #7D8516",
"A  c #878928",
"S  c #84815E",
"D  c #919654",
"F  c #A2A346",
"G  c #AFB44D",
"H  c #A9AA5C",
"J  c #8C8A67",
"K  c #85857E",
"L  c #8A867C",
"P  c #898B7D",
"I  c #AAA86F",
"U  c #CFDB5B",
"Y  c #D4DC5E",
"T  c #D8DD5F",
"R  c #D4E24F",
"E  c #E1ED5D",
"W  c #E6F751",
"Q  c #E7F558",
"!  c #E6F84C",
"~  c #C2C56E",
"^  c #CCCE7A",
"/  c #D6DC74",
"(  c #D6E07F",
")  c #DFE374",
"_  c #ECF66F",
"`  c #E8EA7D",
"'  c #7F7E83",
"]  c #807F84",
"[  c #828282",
"{  c #87858A",
"}  c #8C8C8C",
"|  c #92928E",
" . c #9A9883",
".. c #929292",
"X. c #9C9D95",
"o. c #9B9B9B",
"O. c #B0AB8B",
"+. c #B8BD85",
"@. c #A2A49E",
"#. c #ACA592",
"$. c #B7B89D",
"%. c #A4A5A4",
"&. c #ACACA4",
"*. c #ACADAC",
"=. c #A4A1AC",
"-. c #B0AFAA",
";. c #ACABB1",
":. c #B0AFB5",
">. c #B4B4B5",
",. c #BBBBBB",
"<. c #B6B6B5",
"1. c #C3BAA9",
"2. c #BFC1B4",
"3. c #C8C888",
"4. c #C6C189",
"5. c #CCD385",
"6. c #D2D382",
"7. c #DFDE8C",
"8. c #CFCF9B",
"9. c #DDDC9C",
"0. c #D7E08F",
"q. c #E6E39E",
"w. c #CECCBF",
"e. c #DCDEB6",
"r. c #E2DFA8",
"t. c #E1E5AA",
"y. c #E7EDB1",
"u. c #E1E6B0",
"i. c #F7FAAB",
"p. c #C1BFC2",
"a. c #C4C4C5",
"s. c #CCCBC5",
"d. c #CBCBCB",
"f. c #C6C4C9",
"g. c #D2D3CD",
"h. c #D6D8CA",
"j. c #CDCCD1",
"k. c #D3D3D3",
"l. c #DCDCDC",
"z. c #DBDCD6",
"x. c #E0DFCA",
"c. c #E2DFDA",
"v. c #EBE8D7",
"b. c #E4E4DA",
"n. c #E9E7DB",
"m. c #FFFFD5",
"M. c #FFFFDA",
"N. c #FBF6D8",
"B. c #DCDBE3",
"V. c #E4E4E4",
"C. c #E7E8E0",
"Z. c #EAEBE7",
"A. c #EBEBEC",
"S. c #ECE7ED",
"D. c #FDFBE3",
"F. c #F3F4EC",
"G. c #FDFDEC",
"H. c #F9F4E9",
"J. c #F6EEF9",
"K. c #F5F5F5",
"L. c #F7F8F3",
"P. c #FDFDF4",
"I. c #F6F5F9",
"U. c #FAF7FD",
"Y. c #FDFDFB",
"T. c #FFFFFA",
"R. c #FFFFFB",
"E. c #FEFFFA",
"W. c #FEFEF9",
"Q. c #FAFAFD",
"!. c #FDFAFF",
"~. c gray99",
"^. c #FDFDFD",
"/. c #FFFFFD",
"(. c #FEFEFC",
"). c #FDFDFF",
"_. c #FFFDFF",
"`. c #FFFCFF",
"'. c #FEFEFE",
"]. c #FFFEFF",
"[. c white",
"{. c #FEFEFF",
"}. c #FDFFFE",
"|. c #FEFEFE",
/* pixels */
"].].].].].].].].].].].].W.W.W.W.Q.].Q.].].Q.].].].].K.>...n a t t 6 4 t b ,.].].].].].].].].].].].].",
"].].].].].].].].].].].].].W.W.W.].].].Q.].].].Q.].>.6 b a.].].].Q.].].L.a.n o [ A.Q.].].Q.].].].].].",
"W.W.].].].].].W.W.W.].].].].W.].].Q.].].K.].].].%.t V.].].].].].].].].Q.].].A.n $ %.K.].].].].].].].",
"W.W.].].].].].W.W.W.].].].].].].].].Q.].].].a.{ 5 K.].].].].Q.].].Q.].].].].K.].d.; i A.].].].].].].",
"].].].].].].].].P.].].].].].].].].].].K.].].d.% ; ,.].Q.].].].].Q.].].Q.Q.].].].].Z.5 ; a.].Q.].].].",
"].].W.W.W.W.W.].W.].].].].].].!.].Q.].].].].[ c Z.} ].].].].].].].].].Q.].].].K.].a.$   o a.].].].].",
"].].W.P.P.W.W.].W.W.W.].].].].].].].].l.%.t [ Q.].].K.].].].].].Q.].K.].].].].].d.$       o d.].].].",
"].].W.P.W.W.].].].W.W.].V.;.] b V V N V %.A.].].].].].].].].].].].K.].].].].].d.$           $ V.].].",
"U.].].P.].].!.].].V.} b } j.].].].].].Q.].].].].].].].].].].].].].].].Q.].Q.V.%               5 K.].",
"!.].G.G.D.G.].I.B x d.Q.].].Q.].].].].].Q.].].Q.].].].].Q.Q.].].Q.].Q.].].].a                   [ Q.",
"!.H.t.0.5.y.x.5 =.].].W.W.].].].].Q.Q.].].W.].].].Q.].].].].Q.].].Q.].].Q.}                     > Q.",
"G.m./ Y U ( 9 &.].U.].W.W.P.Q.].].].].Q.].K.i k.Q.].].Q.].K.].].].].].Q.Z.$                       a.",
"r.6.R ! W U D G.].!.].W.W.].].].Q.].Q.].].].[ [ ].].].].].].].].Q.].].].V                         V ",
"4.^ _ Q E Z 8.v.K.].W.W.K.].].].].].Q.].Q.Q.].Q.Q.].].].Q.].].].].Q.].K.o                         5 ",
"D.M.q.H 9.+ L.].].].W.W.].Q.].].K.].].].Q.].].].].].].].].[ i { K.].].%.                          $ ",
"W.1.O.J #., J.U.].Q.W.].Q.].].].].].].P.].].Q.].].].Q.].].Q.6 V.K.].].f                           o ",
"P.w.l 1 y k l.W.].W.W.W.].].].].].].].].].].].].].].].].].K.c l.].].].%                           > ",
"W.X..     @ W.W.W.W.W.].W.].].].Q.].].].].].].].].].].].>.{ z.].].Q.K.                            c ",
"L.7   . .   g.W.W.W.Q.].].].Q.].].].].].].].].].Q.].].].V ].Q.].].].V.                            a.",
"W.s       . p ].].].].Q.].].].].].].].].Q.].].].].].].o.%.].Q.].Q.].K.                          5 Q.",
"].Z.m ;   % > c K.].].].].].].].].Q.].].].].].].Q.V ..z.].].].Q.].K.{ o                       6 Z.].",
"].].].].].].].%.u %.U.].!.].].Q.].].].].V.d.*...6 k.].Q.].Q.].].>.% V >.$         o       o [ Q.].K.",
"].].].].K.].].Q.A.%.b b V V N N n c c N V o.>.,.} > V.].Q.].P.d.$ >.K.].d.6           o c l.].].].].",
"].].I.].].].].].].].].].].].].].].Q.].].].].].].Q...i Q.].].].5 V ].Q.].Q.].Z.%.....,.A.].].].].Q.].",
"].].].].].].].].].].].W.].].].].].Q.].].Q.].].Z.b a   b N V N   a N k.].].].].].].].].].].].].].].].",
"].].].].].].].].].].W.].].].P.P.Q.].].Q.d.{ a V a % ,.,.,.%.V   V ..d.].].Q.].W.].].].].].].].].].].",
"].].].].].].].].Q.].].W.P.].W.].].Z.%.[ } K.o.V ]...*.].].].V.  K.].Q.].].].].W.].].].].].].].].].].",
"].].].].].].].].].].].].].].].Q.*.c k.%.| Q.].i ]...a.].].].l.  V.].].K.].].].].].].].].].].].].].].",
"].].].].].].].].].].Q.].].Q.].].b o.].]...[ ..[ [ *.Q.].K.].].> %.Q.].].].].].].].].].].].].].].].].",
"].].].].].].].].].].].].].].].V.a o...} ].].].].t Q.].].].].].V a ].].].Q.].].].].].].].].].].].].].",
"].].].].].].].].].].Q.Q.].].I.,.N ].].%.,.Q.].].d.c d.].].].K...o l.].Q.].].].].].].].].].].].].].].",
"].].].].].].].].].].].].].].].A.; 4 V % v d.].].].].Z.].].].K.r   } ].].].Q.].].].].].].].].].].].].",
"].].].].].].].].W.W.W.].].].].].% a.f.{ I.z I.].W.W.P.W.].Q.B.X   % ].K.].].].].].].].].].].].].].].",
"].].].].].].].].W.W.W.W.].].].].@ s.5 ].].c p.].L.W.P.W.].].M :     V ].Q.].].Q.].].].].].].].].].].",
"].].].].].].].].W.W.W.W.].].].].K   &.P.].I.B >.].P.W.W.P.z.2 Z.a   % Q.].].].].].].].].].].].].].].",
"].].].].].].].].].W.].].].].].].W.@ W.Q.].].].:.M V o.X.k s F.W.P.N   ..].].].I.].].].].].].].].].].",
"].].].].].].].].].].].].].].].].].& Q.].].Q.Q.].].].l.z.K.].Q.Q.].].a a ].].].].].].].].].].].].].].",
"].].].].].].].].].].].].].].].].].= U.!.].].].].].].].].].I.].].].Q.{ a ].].].Q.Q.].].~.].].].].].].",
"].].].].].].].].].].].].].].].].].2 @.W.].].].].Q.].].].Q.].].].].].[ o %.K.A.d.A.].].].].].].].].].",
"].].].].].].].].].].].].].].].W.W.g.1 C.W.).].].].].Q.].].W.].].].].f   o V V   V.Q.].].].].].].].].",
"].].].].].].].].].!.].].].].W.W.].].-.; >.!.].W.].).].].W.W.W.W.].K.5 N d.].N f ].].].].].].].].].].",
"].].].].].].].].].].Q.].W.W.W.L.~.].W.l.# d ..Z.W.W.A.].W.P.W.~.].a ,.A.a.s c Q.].].].].].].].].].].",
"].].].].W.W.].].Q.].].Q.].W.G.W.W.P.W.c.- ].k.| K C < ].L.W.].].a > N N } l.].].].].].].].].].].].].",
"].].].W.W.W.].].].].].].&.C h l g j e j O S.~.W.W.@.[ I.W.W.].].M % V.].].].].].].].].].].].].].].].",
"].].].W.W.W.].].].].o.i *.b.G.e.i.F ~ 3.$.s.L.L.Q.d.v ].W.W.].].A.6 % z.].].].Q.].].].].].].].].].].",
"].].].W.W.W.W.].].{ n ].<.h.$.u.G Y ) w S L K | } ' u I.W.W.Q.].].].,.t i %.Q.].].].].].].].].].].].",
"].].].W.W.W.W.].].M c { k P.G.+./ T ` 6.N.W.].K.Q.].].].P.P.].Q.].].].].l.t a ].].].].].].].].].].].",
"].].].W.W.W.W.].].I.%.o.K P 0 q 8 A 7.I  .~.!.a.k.].].W.P.P.K.].].].Q.V.*.6 N ].].].].].].].].].].].",
"].].].].W.].].].].Q.].].W.F.2. .* J $.3 b.V.B.4 z.z.,.*.%.| V d i a a f { d.K.].].].].].].].].].].].",
"].].].].].].].].].].].Q.Q.W.W.P.n.L C n k s c V N ..%.>.d.z.A.Z.].].].].].].].].].].].].].].].].].]."
};
