/* XPM */
static char *_99e0aaf753c457dc5e9b90d0a35cfd6LfSfXh4U4wuR2Zhg[] = {
/* columns rows colors chars-per-pixel */
"50 50 131 2 ",
"   c #3E7A23",
".  c #417C26",
"X  c #437E29",
"o  c #954F06",
"O  c #8D5D0F",
"+  c #965209",
"@  c #92651A",
"#  c #438026",
"$  c #488629",
"%  c #4A882A",
"&  c #508637",
"*  c #528D34",
"=  c #538B38",
"-  c #5C9D37",
";  c #5B973B",
":  c #5FA138",
">  c #62A53A",
",  c #5F9543",
"<  c #62924C",
"1  c #689F4B",
"2  c #669450",
"3  c #6A9655",
"4  c #699854",
"5  c #6E9B5A",
"6  c #66A641",
"7  c #69AA42",
"8  c #6EAC4A",
"9  c #71AD4E",
"0  c #6FB049",
"q  c #73B44D",
"w  c #75AE53",
"e  c #77B453",
"r  c #79B257",
"t  c #7BBA56",
"y  c #7CB35C",
"u  c #7EBD5A",
"i  c #7CA06B",
"p  c #AE875C",
"a  c #B28453",
"s  c #80BE5D",
"d  c #AF9C74",
"f  c #BC9A75",
"g  c #83AD6F",
"h  c #84BA64",
"j  c #89B76F",
"k  c #87B86A",
"l  c #8CBD6F",
"z  c #8FBC75",
"x  c #91BD77",
"c  c #81C05D",
"v  c #87C564",
"b  c #88C566",
"n  c #8BC56A",
"m  c #8FC670",
"M  c #92C774",
"N  c #92C973",
"B  c #95C778",
"V  c #98C37E",
"C  c #99CC7C",
"Z  c #95B486",
"A  c #9ABA88",
"S  c #CBA985",
"D  c #99C082",
"F  c #9CC982",
"G  c #A1CC87",
"H  c #A1C48C",
"J  c #A3CB8B",
"K  c #A5D18C",
"L  c #A8D48F",
"P  c #A3C490",
"I  c #AACB96",
"U  c #A9C49C",
"Y  c #A7D190",
"T  c #ABD493",
"R  c #AED199",
"E  c #B2D59E",
"W  c #B2C2AB",
"Q  c #B7CBAE",
"!  c #B3D3A1",
"~  c #BBD4AC",
"^  c #BDDCAB",
"/  c #B9CDB0",
"(  c #BFD5B2",
")  c #CDC6BE",
"_  c #D4C4B1",
"`  c #C3DCB5",
"'  c #C6D6BD",
"]  c #C6DABA",
"[  c #C9DFBB",
"{  c #CBE1BE",
"}  c #C7D0C1",
"|  c #CAD5C4",
" . c #CCDFC2",
".. c #CFD6CB",
"X. c #D0D5CE",
"o. c #D1DECA",
"O. c #D7D7D7",
"+. c #D5DAD3",
"@. c #D9DED6",
"#. c #DBDBDB",
"$. c #CEE3C2",
"%. c #D1E4C6",
"&. c #D1E8C5",
"*. c #D4E4CB",
"=. c #D9EACF",
"-. c #D8E1D3",
";. c #DBE9D3",
":. c #DEE3DB",
">. c #E1E6DE",
",. c #E2EDDC",
"<. c #E5F0DF",
"1. c #E4E4E4",
"2. c #E9E6E2",
"3. c #E5E8E3",
"4. c #E9E9E6",
"5. c #EAEAEA",
"6. c #EDEDED",
"7. c #EBF3E7",
"8. c #EFF7EA",
"9. c #EEF1ED",
"0. c #F0F7EB",
"q. c #F0F2EE",
"w. c #F1F7EE",
"e. c #F2F8EF",
"r. c gray94",
"t. c #F4F5F3",
"y. c gray97",
"u. c #F8F8F6",
"i. c #F9FBF8",
"p. c #FAFCF9",
"a. c #FFFFFE",
/* pixels */
"y.#.5.6.O.y.O.5.5.#.y.O.6.5.#.y.O.r.1.1.y.O.r.1.1.r.O.y.1.1.6.O.y.#.5.6.O.y.O.6.5.#.y.O.6.1.1.y.O.r.",
"6.1.1.5.1.6.1.5.5.1.6.1.5.1.1.6.1.5.1.1.5.1.5.1.1.5.1.6.1.1.5.1.6.1.5.5.1.6.1.5.5.1.6.1.5.1.1.6.1.6.",
"O.r.1.1.y.O.r.1.1.r.O.y.1.1.6.O.y.#.5.6.O.y.O.>.5.#.y.O.6.1.#.y.O.r.1.1.y.O.y.1.1.r.O.y.#.1.6.O.i.#.",
"6.1.1.5.1.6.1.5.5.1.6.1.5.1.1.6.1.5.1.1.5.1.5.o.1.5.1.6.1.1.5.1.6.1.5.5.1.6.1.5.5.1.6.1.5.1.1.6.1.6.",
"y.#.5.6.O.y.O.5.5.#.y.O.6.5.#.y.O.r.1.1.y.O.r.` 1.r.O.y.1.1.6.O.y.#.5.6.O.y.O.6.5.#.y.O.6.1.1.y.O.r.",
"O.r.1.1.y.O.r.1.1.r.O.y.1.1.6.O.y.#.5.6.O.y.} D 5.#.y.O.6.5.#.y.O.r.1.1.y.O.y.1.1.r.O.y.#.1.6.O.y.#.",
"1.5.1.1.6.1.5.1.1.5.1.6.1.1.5.1.6.1.5.5.1.6.~ w 5.1.6.1.5.1.1.6.1.5.1.1.5.1.5.1.1.5.1.6.1.1.5.1.6.1.",
"y.#.5.6.O.y.O.5.5.#.y.O.6.5.#.y.O.r.1.1.y.O.G 7 | r.O.y.1.1.6.O.y.#.5.6.O.y.O.6.5.#.y.O.6.1.1.y.O.r.",
"1.5.1.1.6.1.5.1.1.5.1.6.1.1.5.1.6.1.5.5.1.>.E I D 1.6.1.5.1.1.6.1.5.1.1.5.1.5.1.1.5.1.6.1.1.5.1.6.1.",
"O.r.1.1.y.O.r.1.1.r.O.y.1.1.6.O.y.#.5.6.O.T &.J - W y.O.6.1.#.y.O.r.1.1.y.O.y.1.1.r.O.y.#.1.6.O.y.#.",
"y.#.5.6.O.y.O.5.5.#.y.O.6.5.#.y.O.r.1.1.*.n b > * 4 O.y.1.1.6.O.y.#.5.6.O.y.O.6.5.#.y.O.6.1.1.y.O.r.",
"6.1.1.5.1.6.1.5.5.1.6.1.5.1.1.6.1.5.1.1.5.1.T > ' 4.1.6.1.1.5.1.6.1.5.5.1.6.1.5.5.1.6.1.5.1.1.6.1.5.",
"O.r.1.1.y.O.r.1.1.r.O.y.1.1.6.O.y.#.5.6.O.y.b > R #.y.O.6.1.#.y.O.r.1.1.y.O.y.1.1.r.O.y.#.1.6.O.y.#.",
"6.1.1.5.1.6.1.5.5.1.6.1.5.1.1.6.1.5.1.1.5.] t > w 5.1.6.1.1.5.1.6.1.5.5.1.6.1.5.5.1.6.1.5.1.1.6.1.5.",
"y.#.5.6.O.y.O.5.5.#.y.O.6.5.#.y.O.r.1.1.9.N 0 > $.! O.y.1.1.6.O.y.#.5.6.O.y.O.6.5.#.y.O.6.1.1.y.O.r.",
"O.r.1.1.y.O.r.1.1.r.O.y.1.1.6.O.y.#.5.5.K v 7 9 ,.z Q O.6.5.#.y.O.r.1.1.y.O.y.1.1.r.O.y.1.4.6.O.y.#.",
"1.5.1.1.6.1.5.1.1.5.1.6.1.1.5.1.6.1.5.~ N n q > 7 , 2 +.5.1.1.6.1.5.1.1.5.1.5.1.1.5.1.6.1.1.5.1.6.1.",
"y.#.5.6.O.y.O.5.5.#.y.O.6.5.#.y.O.r.1.1.y.J t > > =.O.y.1.1.6.O.y.#.5.6.O.y.O.6.5.#.y.O.6.1.1.y.O.r.",
"1.5.1.1.6.1.5.1.1.5.1.6.1.1.5.1.6.1.5.5.-.T q > > k 6.1.5.1.1.6.1.5.1.1.5.1.5.1.1.5.1.6.1.1.5.1.6.1.",
"O.r.1.1.y.O.r.1.1.r.O.y.1.1.6.O.y.#.5.6.K 8.> > [ r { O.6.1.#.y.O.r.1.1.y.O.y.1.1.r.O.y.#.4.6.O.y.#.",
"y.#.5.6.O.y.O.5.5.#.y.O.6.5.#.y.O.r.1.^ b ` > > { y ; o.1.1.6.O.y.#.5.6.O.y.O.6.5.#.y.O.6.1.1.y.O.r.",
"6.1.1.5.1.6.1.5.5.1.6.1.5.1.1.6.1.5.] v M u > > y 1 X & #.1.5.1.6.1.5.5.1.6.1.5.5.1.6.1.5.1.1.6.1.5.",
"O.r.1.1.y.O.r.1.1.r.O.y.1.1.6.O.y.#.5.>.' v > > > 9 t.O.6.1.#.y.O.r.1.1.y.O.y.1.1.r.O.y.#.1.6.O.y.#.",
"6.1.1.5.1.6.1.5.5.1.6.1.5.1.1.6.1.5.1.1.G v > > > > ~ 6.1.4.5.1.6.1.5.5.1.6.1.5.5.1.6.1.5.1.1.6.1.5.",
"y.#.5.6.O.y.O.5.5.#.y.O.6.5.#.y.O.r.1.*.n u > w r ` x q.1.1.6.O.y.#.5.6.O.y.O.6.5.#.y.O.6.1.1.y.O.r.",
"O.r.1.1.y.O.r.1.1.r.O.y.1.1.6.O.y.#.3.E &.q > l a.a.w.H 6.1.#.y.O.r.1.1.y.O.y.1.1.r.O.y.#.1.6.O.y.#.",
"1.5.1.1.6.1.5.1.1.5.1.6.1.1.5.1.6.1.K ^ =.8 > > <.i.%.g Z 1.1.6.1.5.1.1.5.1.5.1.1.5.1.6.1.1.5.1.6.1.",
"y.#.5.6.O.y.O.5.5.#.y.O.6.5.#.y.O.$.b b n 7 > > y w.= X < +.6.O.y.#.5.6.O.y.O.6.5.#.y.O.6.1.1.y.O.r.",
"1.5.1.1.6.1.6.1.1.5.1.6.1.1.5.1.6.1.>.>.N e > > > > I 1.5.4.1.6.1.5.1.1.5.1.5.1.1.5.1.6.1.1.5.1.6.1.",
"O.r.1.1.y.O.r.1.1.r.O.y.1.1.6.O.y.#.5.] v u > > > > 9 O.6.5.#.y.O.r.1.1.y.O.y.1.1.r.O.y.#.1.6.O.y.#.",
"y.#.5.6.O.y.O.5.5.#.y.O.6.5.#.y.O.r.1.K N t > > > > > ~ 1.1.6.O.y.#.5.6.O.y.O.6.5.#.y.O.6.1.1.y.O.r.",
"6.1.1.5.1.6.1.5.5.1.6.1.5.1.1.6.1.5.] L e.[ > > > > > 8 @.1.5.1.6.1.5.5.1.6.1.5.5.1.6.1.5.1.1.6.1.5.",
"O.r.1.1.y.O.y.1.1.r.O.y.1.1.6.O.y...N &.0.~ 7 w > > > : 3 1.#.y.O.r.1.1.y.O.y.1.1.r.O.y.#.1.6.O.y.#.",
"6.1.1.5.1.6.1.5.5.1.6.1.5.1.1.6.+.M v v ^ s ` w.> > > $   5 :.1.6.1.5.5.1.6.1.5.5.1.6.1.5.1.1.6.1.5.",
"y.#.5.6.O.y.O.5.5.#.y.O.6.5.#.t.I C K E v t u.a.e > 7 U 3 5 / O.y.#.5.6.O.y.O.6.5.#.y.O.6.1.1.y.O.r.",
"O.r.1.1.y.O.r.1.1.r.O.y.1.1.6.O.y.#.5.B c r p.a.y > > P 6.1.#.y.O.r.1.1.y.O.y.1.1.r.O.y.#.1.6.O.y.#.",
"1.5.1.1.6.1.5.1.1.5.1.6.1.1.5.1.6.1. .v 7 > ;.a.8 > ` J 4.1.1.6.1.5.1.1.5.1.5.1.1.5.1.6.1.1.5.1.6.1.",
"y.#.5.6.O.y.O.5.5.#.y.O.6.5.#.y.O.r.F u > > ,.*.> > 7.w.( 1.6.O.y.#.5.6.O.y.O.6.5.#.y.O.6.1.1.y.O.r.",
"1.5.1.1.6.1.5.1.1.5.1.6.1.1.5.1.6.] v 7 > > V r > 8 a.a.=.:.1.6.1.5.1.1.5.1.5.1.1.5.1.6.1.5.5.1.6.1.",
"O.r.1.1.y.O.r.1.1.r.O.y.1.1.6.O.w.m s > > > > > > 9 ! `  .j #.y.O.r.1.1.y.O.y.1.1.r.O.y.#.5.6.O.y.#.",
"y.#.5.6.O.y.O.5.5.#.y.O.6.5.#.t.F v t > > > > > > > 7 7 > % Z O.y.#.5.6.O.y.O.6.5.#.y.O.6.1.1.y.O.r.",
"6.1.1.5.1.6.1.5.5.1.6.1.5.1.:.Y v v t > > > > > > > > > > #   i 4.1.5.5.1.6.1.5.5.1.6.1.5.1.1.6.1.5.",
"O.r.1.1.y.O.r.1.1.r.O.y.1.1.E n v v c > > > > > > > > > :   . 5 W r.1.1.y.O.y.1.1.r.O.y.#.1.6.O.y.#.",
"6.1.1.5.1.6.1.5.5.1.6.1.5.1.1.5.' ^ J h 6 > > > > > w z A Q 1.1.6.1.5.5.1.6.1.5.5.1.6.1.5.1.1.6.1.5.",
"y.#.5.6.O.y.#.5.5.#.y.O.6.5.#.y.O.r.1.1.y.X.@ O d r.O.y.1.1.6.O.y.#.5.6.O.y.O.6.5.#.y.O.6.1.1.y.O.r.",
"O.r.1.1.y.O.r.1.1.r.O.y.1.1.6.O.y.#.5.6.O.u.+ o S #.y.O.6.1.#.y.O.r.1.1.y.O.y.1.1.r.O.y.#.1.6.O.y.#.",
"1.5.1.1.6.1.5.1.1.5.1.6.1.1.5.1.6.1.5.5.1.2.o o f 1.6.1.5.1.1.6.1.5.1.1.5.1.5.1.1.5.1.6.1.5.5.1.6.1.",
"y.#.5.6.O.y.O.5.5.#.y.O.6.5.#.y.O.r.1.1.y.) o o p r.O.y.1.1.6.O.y.#.5.6.O.y.O.6.5.#.y.O.6.5.1.y.O.r.",
"1.5.1.1.6.1.5.1.1.5.1.6.1.1.5.1.6.1.5.5.1.4.f a _ 1.6.1.5.1.1.6.1.5.1.1.5.1.5.1.1.5.1.6.1.1.5.1.6.1.",
"O.r.1.1.y.O.r.1.1.r.O.y.1.1.6.O.y.#.5.6.O.y.O.6.5.#.y.O.6.1.#.y.O.r.1.1.y.O.y.1.1.r.O.y.#.1.6.O.y.#."
};
